<?xml version="1.0" standalone="no"?>
<!DOCTYPE svg PUBLIC "-//W3C//DTD SVG 20010904//EN"
 "http://www.w3.org/TR/2001/REC-SVG-20010904/DTD/svg10.dtd">
<svg version="1.0" xmlns="http://www.w3.org/2000/svg"
 width="495.000000pt" height="490.000000pt" viewBox="0 0 495.000000 490.000000"
 preserveAspectRatio="xMidYMid meet">

<g transform="translate(0.000000,490.000000) scale(0.100000,-0.100000)"
fill="#000000" stroke="none">
<path d="M2370 4889 c-412 -44 -669 -113 -975 -263 -289 -142 -460 -262 -665
-466 -187 -186 -321 -372 -449 -627 -200 -398 -269 -713 -258 -1182 5 -200 9
-255 31 -361 156 -757 622 -1363 1319 -1714 225 -114 587 -221 837 -247 140
-15 514 -6 649 16 246 39 487 119 736 243 392 195 707 482 947 862 98 155 109
175 181 342 84 191 129 351 178 618 30 167 33 459 6 630 -58 375 -161 665
-342 968 -98 165 -185 280 -314 414 -252 263 -514 441 -865 587 -226 94 -471
151 -736 170 -74 6 -148 12 -165 14 -16 3 -68 1 -115 -4z m470 -383 c128 -23
248 -60 415 -127 160 -65 180 -75 350 -180 420 -259 745 -697 879 -1184 64
-232 71 -291 71 -575 -1 -287 -13 -385 -80 -606 -123 -403 -406 -806 -741
-1055 -338 -251 -754 -401 -1175 -425 -359 -20 -834 100 -1157 292 -130 77
-322 223 -421 318 -116 113 -299 355 -285 378 4 6 3 8 -4 4 -13 -8 -57 61 -55
86 1 10 -2 16 -7 13 -17 -10 -125 237 -115 263 2 7 1 11 -4 8 -9 -6 -70 175
-96 284 -46 197 -54 525 -20 761 28 189 111 454 186 593 35 63 50 77 19 16
-29 -56 -25 -63 7 -10 31 52 44 64 56 47 4 -7 5 0 1 16 -4 17 -2 27 6 27 6 0
8 -6 5 -12 -4 -7 3 -3 14 10 11 13 18 29 15 37 -5 12 7 33 69 124 9 14 24 40
32 58 16 35 65 88 133 145 27 22 39 39 32 43 -8 5 -7 11 2 23 6 10 -10 -3 -37
-28 -71 -66 -23 -4 73 93 132 134 299 251 520 367 36 19 66 28 78 24 14 -4 15
-3 6 4 -11 7 -10 10 3 16 25 9 37 7 29 -6 -4 -7 -3 -8 5 -4 6 4 9 12 6 17 -4
5 -4 9 -2 9 2 0 48 16 102 35 54 20 102 34 107 33 5 -2 -30 -16 -77 -33 -47
-16 -85 -32 -85 -36 0 -3 48 10 108 31 109 38 155 52 227 69 28 6 33 9 15 10
-14 0 -50 -6 -80 -14 -63 -17 -87 -19 -50 -4 25 11 227 54 290 62 82 11 546
-1 630 -17z"/>
<path d="M2273 4513 c9 -2 25 -2 35 0 9 3 1 5 -18 5 -19 0 -27 -2 -17 -5z"/>
<path d="M2473 4513 c9 -2 25 -2 35 0 9 3 1 5 -18 5 -19 0 -27 -2 -17 -5z"/>
<path d="M2255 4284 c-110 -16 -257 -52 -375 -94 -189 -67 -319 -134 -480
-249 -36 -25 -68 -46 -71 -46 -15 0 -108 -88 -102 -97 3 -6 1 -8 -4 -5 -14 9
-128 -112 -221 -233 -88 -114 -222 -375 -269 -525 -73 -232 -97 -397 -97 -660
0 -198 1 -217 28 -325 85 -340 203 -566 437 -829 186 -210 474 -403 749 -502
58 -21 98 -39 90 -39 -10 -1 -9 -4 5 -10 11 -4 29 -6 40 -4 11 3 32 0 45 -6
23 -10 23 -10 2 -6 -12 2 -20 1 -17 -4 2 -4 19 -10 37 -14 33 -6 159 -42 188
-53 8 -3 23 -5 34 -4 10 2 22 -2 25 -7 3 -5 44 -13 91 -16 47 -4 150 -14 230
-22 150 -16 348 -14 359 4 3 5 39 16 80 23 40 8 76 19 78 26 3 7 14 13 24 13
10 0 19 4 19 8 0 5 34 14 76 20 41 7 82 19 90 27 9 8 23 15 33 15 10 0 35 11
55 25 20 14 42 25 47 25 6 0 30 16 53 35 24 19 51 35 61 35 16 0 62 29 97 62
7 7 38 32 68 55 30 23 79 64 109 92 30 28 58 51 63 51 4 0 8 5 8 12 0 11 49
67 118 133 17 17 32 37 32 44 0 7 5 9 10 6 6 -3 10 3 10 14 0 12 7 21 16 21 8
0 12 5 8 11 -3 6 -2 14 3 18 8 5 63 115 63 126 0 3 14 34 30 68 17 35 30 73
30 83 0 10 9 43 20 72 11 29 20 65 20 81 0 16 7 57 16 92 12 45 15 95 12 178
-3 119 -12 155 -30 130 -6 -9 -8 4 -4 37 5 41 3 53 -9 58 -31 11 -633 28 -889
24 -237 -3 -265 -6 -306 -24 -54 -25 -134 -101 -217 -209 -138 -180 -139 -180
-209 -217 -96 -50 -156 -61 -309 -56 -150 5 -197 18 -295 84 -88 59 -216 186
-205 205 4 5 1 8 -7 7 -8 -2 -12 4 -10 16 2 10 0 16 -5 13 -5 -3 -9 2 -10 11
-1 18 -3 25 -29 117 -28 97 -22 388 7 406 6 3 11 12 12 20 4 27 30 79 39 79 5
0 16 16 24 35 8 20 19 33 24 30 6 -3 10 3 10 14 0 12 4 21 9 21 5 0 15 13 22
29 17 35 85 111 99 111 11 0 52 21 60 31 8 11 99 39 125 39 13 0 35 4 48 9 15
6 41 6 67 0 48 -11 107 -17 234 -26 116 -8 151 -31 273 -183 51 -63 109 -130
130 -148 74 -63 182 -130 222 -137 23 -4 41 -10 41 -14 0 -5 91 -11 203 -14
111 -3 276 -8 365 -11 100 -3 169 -9 177 -16 21 -18 324 -8 335 10 5 8 6 17 2
20 -13 9 -13 52 0 44 7 -4 8 -3 4 5 -4 6 -11 9 -16 6 -10 -6 -25 77 -17 97 3
7 6 -2 6 -20 1 -21 5 -31 12 -26 16 9 2 131 -28 244 -14 52 -29 110 -33 128
-10 40 -23 58 -17 22 17 -89 14 -94 -9 -15 -30 106 -101 273 -156 368 -21 37
-36 72 -33 77 4 6 1 9 -7 8 -7 -2 -12 5 -12 14 1 10 -2 16 -6 13 -5 -3 -37 34
-71 82 -79 109 -139 174 -254 273 -192 164 -443 308 -655 374 -220 69 -282 78
-525 81 -121 2 -233 1 -250 -1z m446 -340 c177 -29 448 -137 595 -237 153
-103 325 -278 417 -425 69 -109 177 -344 177 -385 0 -9 -49 -12 -209 -12
l-209 0 -17 48 c-73 203 -299 427 -542 536 -138 62 -225 82 -390 88 -270 11
-459 -44 -688 -198 -99 -66 -155 -119 -217 -202 -77 -102 -110 -160 -146 -252
-74 -192 -96 -306 -96 -490 0 -178 32 -317 108 -470 108 -217 251 -364 501
-521 17 -10 33 -17 38 -16 4 1 7 -4 7 -11 0 -7 17 -19 38 -26 20 -8 43 -19 51
-25 8 -6 27 -11 43 -12 45 -3 147 -27 143 -35 -6 -8 56 -1 64 7 3 4 -4 4 -16
1 -13 -3 -23 -1 -23 5 0 7 31 8 88 3 49 -3 124 -2 172 4 265 34 429 113 618
296 65 64 137 145 170 193 31 46 58 79 60 73 2 -5 18 -1 37 10 55 33 141 42
241 24 47 -8 99 -13 114 -10 28 5 28 5 19 -31 -15 -51 -72 -183 -107 -244 -79
-138 -287 -356 -432 -451 -203 -135 -489 -231 -724 -245 -165 -9 -366 13 -521
58 -116 34 -176 59 -168 70 4 7 0 9 -10 5 -41 -16 -260 105 -371 204 -11 10
-54 46 -94 80 -40 34 -71 63 -68 66 2 3 -11 20 -30 39 -21 20 -32 39 -28 45 5
8 3 9 -5 5 -8 -5 -14 0 -18 13 -3 12 -9 21 -14 21 -5 0 -6 7 -2 15 3 10 1 15
-7 13 -7 -2 -15 3 -18 11 -3 9 0 11 8 6 7 -4 4 4 -5 19 -17 25 -34 38 -19 14
4 -6 3 -8 -4 -5 -5 4 -8 15 -6 25 3 9 -13 52 -35 95 -23 42 -41 82 -41 87 0 6
-7 27 -17 48 -9 20 -15 40 -14 45 0 4 -8 33 -18 65 -11 31 -30 107 -43 167
-20 99 -23 136 -23 360 1 278 7 320 71 492 78 208 157 342 279 472 219 231
521 397 838 460 129 26 147 27 288 29 66 1 156 -5 210 -14z m-1371 -57 c0 -2
-10 -12 -22 -23 l-23 -19 19 23 c18 21 26 27 26 19z m-60 -51 c0 -2 -8 -10
-17 -17 -16 -13 -17 -12 -4 4 13 16 21 21 21 13z m2997 -1018 c-3 -8 -6 -5 -6
6 -1 11 2 17 5 13 3 -3 4 -12 1 -19z m10 -60 c-3 -8 -6 -5 -6 6 -1 11 2 17 5
13 3 -3 4 -12 1 -19z m-2530 -170 c-3 -8 -6 -5 -6 6 -1 11 2 17 5 13 3 -3 4
-12 1 -19z m-10 -55 c-3 -10 -5 -4 -5 12 0 17 2 24 5 18 2 -7 2 -21 0 -30z
m-740 -30 c-3 -10 -5 -2 -5 17 0 19 2 27 5 18 2 -10 2 -26 0 -35z m2491 20
c-32 -2 -84 -2 -115 0 -32 2 -6 3 57 3 63 0 89 -1 58 -3z m-1761 -100 c-3 -10
-5 -4 -5 12 0 17 2 24 5 18 2 -7 2 -21 0 -30z m10 -95 c-2 -13 -4 -5 -4 17 -1
22 1 32 4 23 2 -10 2 -28 0 -40z m-740 -60 c-2 -18 -4 -6 -4 27 0 33 2 48 4
33 2 -15 2 -42 0 -60z m813 -163 c0 -5 -5 -3 -10 5 -5 8 -10 20 -10 25 0 6 5
3 10 -5 5 -8 10 -19 10 -25z m2477 -7 c-3 -8 -6 -5 -6 6 -1 11 2 17 5 13 3 -3
4 -12 1 -19z m-3250 -50 c-3 -7 -5 -2 -5 12 0 14 2 19 5 13 2 -7 2 -19 0 -25z
m1276 -725 c-7 -2 -21 -2 -30 0 -10 3 -4 5 12 5 17 0 24 -2 18 -5z m-193 -683
c20 -6 21 -8 5 -8 -11 0 -31 4 -45 8 -20 6 -21 8 -5 8 11 0 31 -4 45 -8z m57
-16 c-3 -3 -12 -4 -19 -1 -8 3 -5 6 6 6 11 1 17 -2 13 -5z m146 -21 c-13 -2
-33 -2 -45 0 -13 2 -3 4 22 4 25 0 35 -2 23 -4z"/>
<path d="M3006 1425 c-8 -8 -17 -15 -21 -15 -3 0 -36 -14 -73 -31 -68 -32
-342 -95 -369 -85 -7 3 -13 -1 -13 -8 0 -16 59 -27 115 -20 75 9 154 28 149
36 -3 4 4 8 15 8 12 0 21 4 21 9 0 5 17 15 38 22 62 20 198 99 170 99 -9 0
-23 -7 -32 -15z"/>
<path d="M4221 3054 c0 -11 3 -14 6 -6 3 7 2 16 -1 19 -3 4 -6 -2 -5 -13z"/>
<path d="M2262 2669 c-48 -24 -103 -83 -132 -144 -58 -121 15 -315 137 -361
69 -27 176 -25 231 4 109 58 178 162 176 268 -2 153 -120 254 -297 254 -53 0
-83 -6 -115 -21z"/>
<path d="M2590 2222 c-19 -18 -51 -42 -70 -52 -32 -18 -33 -19 -10 -19 28 0
111 16 95 18 -5 1 1 10 14 20 24 18 36 68 16 67 -5 0 -26 -15 -45 -34z"/>
<path d="M500 1751 c0 -6 4 -13 10 -16 6 -3 7 1 4 9 -7 18 -14 21 -14 7z"/>
<path d="M656 1397 c3 -10 9 -15 12 -12 3 3 0 11 -7 18 -10 9 -11 8 -5 -6z"/>
</g>
</svg>
